<?xml version="1.0" encoding="utf-8"?>
<!-- Generator: Adobe Illustrator 14.0.0, SVG Export Plug-In . SVG Version: 6.00 Build 43363)  -->
<!DOCTYPE svg PUBLIC "-//W3C//DTD SVG 1.1//EN" "http://www.w3.org/Graphics/SVG/1.1/DTD/svg11.dtd">
<svg version="1.1" id="Layer_1" xmlns="http://www.w3.org/2000/svg" xmlns:xlink="http://www.w3.org/1999/xlink" x="0px" y="0px"
	 width="100px" height="100px" viewBox="0 0 100 100" enable-background="new 0 0 100 100" xml:space="preserve">
<g>
	<g>
		<path fill-rule="evenodd" clip-rule="evenodd" d="M91.75,11.963c0,25.358,0,50.716,0,76.073c-26.917,0-53.833,0-80.75,0
			c0-18.656,0-37.703,0-56.609c0-6.267-0.639-12.849,0-18.87c0.02-0.186-0.244-0.65,0.315-0.594
			C38.127,11.963,64.938,11.963,91.75,11.963z M18.886,34.547c7.405-0.939,10.501,1.187,10.882,6.538
			c0.575,8.079-0.823,19.835-0.158,27.19c2.261,0,4.521,0,6.782,0c1.936-8.542,2.037-18.632,5.362-26.15
			c0.785-1.775,2.705-5.523,5.362-5.349c2.517,0.165,3.172,3.809,3.312,5.646c0.627,8.242-0.474,17.603,0,25.854
			c2.05,0,4.101,0,6.151,0c1.771-8.647,2.171-18.413,5.361-26.002c0.757-1.8,2.559-5.676,5.205-5.498
			c2.194,0.148,3.123,3.142,3.312,5.052c0.775,7.84-0.587,17.993,0,26.299c2.842,0.343,6.358,0.052,9.463,0.148
			c-0.663-8.757,0.876-20.812,0-29.271c-0.447-4.311-3.189-7.143-8.201-6.687c-5.264,0.48-9.079,4.194-11.829,6.538
			c-0.803-4.228-3.569-6.966-8.517-6.538c-4.911,0.426-8.397,4.252-10.882,6.241c-0.412-3.021-1.087-5.435-3.627-6.389
			c-2.084-0.783-5.627-0.297-8.832-0.297c-3.215,0-6.449,0-9.147,0C18.604,32.44,18.651,33.972,18.886,34.547z"/>
		<path fill-rule="evenodd" clip-rule="evenodd" fill="#FFFFFF" d="M18.886,31.873c2.699,0,5.933,0,9.147,0
			c3.205,0,6.748-0.486,8.832,0.297c2.54,0.954,3.215,3.368,3.627,6.389c2.485-1.989,5.971-5.814,10.882-6.241
			c4.947-0.429,7.714,2.31,8.517,6.538c2.75-2.343,6.565-6.058,11.829-6.538c5.012-0.457,7.754,2.376,8.201,6.687
			c0.876,8.458-0.663,20.514,0,29.271c-3.104-0.097-6.621,0.194-9.463-0.148c-0.587-8.307,0.775-18.459,0-26.299
			c-0.189-1.91-1.118-4.903-3.312-5.052c-2.646-0.179-4.448,3.698-5.205,5.498c-3.19,7.589-3.59,17.354-5.361,26.002
			c-2.051,0-4.102,0-6.151,0c-0.474-8.251,0.627-17.611,0-25.854c-0.14-1.837-0.795-5.481-3.312-5.646
			c-2.658-0.174-4.577,3.574-5.362,5.349c-3.325,7.518-3.427,17.608-5.362,26.15c-2.261,0-4.521,0-6.782,0
			c-0.666-7.355,0.733-19.111,0.158-27.19c-0.381-5.351-3.477-7.477-10.882-6.538C18.651,33.972,18.604,32.44,18.886,31.873z"/>
	</g>
</g>
</svg>
