<?xml version="1.0" encoding="utf-8"?>
<!-- Generator: Adobe Illustrator 14.0.0, SVG Export Plug-In . SVG Version: 6.00 Build 43363)  -->
<!DOCTYPE svg PUBLIC "-//W3C//DTD SVG 1.1//EN" "http://www.w3.org/Graphics/SVG/1.1/DTD/svg11.dtd">
<svg version="1.1" id="Layer_1" xmlns="http://www.w3.org/2000/svg" xmlns:xlink="http://www.w3.org/1999/xlink" x="0px" y="0px"
	 width="100px" height="100px" viewBox="0 0 100 100" enable-background="new 0 0 100 100" xml:space="preserve">
<g id="XMLID_2_">
	<path d="M88.407,49.072c0.297,12.449-4.586,20.998-10.795,27.612c-6.1,6.506-15.054,11.451-26.536,11.724
		c-11.77,0.281-21.262-4.454-27.604-10.795c-6.606-6.606-11.279-14.337-11.723-26.536c-0.453-12.261,4.477-21.044,10.483-27.604
		c2.839-3.104,6.778-5.881,11.107-8.026c4.392-2.168,9.773-3.51,15.732-3.697c11.903-0.39,21.567,4.742,27.612,10.795
		C82.854,28.706,88.119,37.091,88.407,49.072z M77.3,74.375c5.608-6.333,10.188-15.062,9.259-26.996
		c-0.85-10.912-5.764-18.868-12.035-24.531c-6.084-5.499-15.491-10.179-27.3-9.25c-10.834,0.85-19.266,6.201-24.679,12.184
		c-5.545,6.131-9.906,15.499-8.946,27.308c0.874,10.779,5.608,18.564,12.184,24.367c6.419,5.663,16.083,10.031,27.151,9.103
		C63.813,85.646,71.497,80.927,77.3,74.375z"/>
	<path d="M79.156,34.728c4.157,6.646,4.875,18.097,2.005,26.224c-2.745,7.745-8.112,13.837-14.5,17.434
		c3.432-9.274,6.341-19.165,9.867-28.845c1.661-4.547,3.275-8.845,2.473-14.968C79.133,34.548,79.148,34.634,79.156,34.728z"/>
	<path d="M72.215,46.607c0.452,5.234-1.631,9.43-2.777,13.268c-1.006,3.346-1.692,6.209-2.933,9.867
		c-4.095-11.583-7.956-23.408-11.879-35.17c2.191-0.312,4.688,0.328,4.937-1.389c0.289-1.989-2.059-1.529-4.32-1.388
		c-1.833,0.117-3.83,0.156-5.702,0.156c-3.658,0-10.25-1.232-10.335,0.928c-0.086,1.997,2.785,1.443,4.781,1.693
		c1.591,4.844,3.44,9.415,5.085,14.196c-2.457,6.997-4.82,14.095-7.09,21.286c-4.267-11.575-8.097-23.579-12.036-35.482
		c2.012-0.265,5.218,0.359,4.938-1.849c-0.32-2.52-9.758,0.07-12.036-0.772c-0.14-0.858,0.967-1.716,1.701-2.621
		c4.976-6.123,12.69-11.474,22.986-12.184c10.943-0.756,19.157,3.518,24.523,8.635c-3.572-0.062-6.139,2.8-5.71,6.786
		C66.895,37.629,71.685,40.523,72.215,46.607z"/>
	<path d="M50.616,53.089c3.549,9.204,6.739,18.759,10.335,27.916c-5.218,2.355-14.383,2.59-20.209,0.616
		C44.057,72.137,47.262,62.535,50.616,53.089z"/>
	<path d="M19.923,36.732c5.358,14.126,10.366,28.61,15.732,42.729C25.477,74.804,16.289,63.51,17.146,47.996
		C17.38,43.69,18.504,40.281,19.923,36.732z"/>
</g>
</svg>
