<?xml version="1.0" encoding="utf-8"?>
<!-- Generator: Adobe Illustrator 14.0.0, SVG Export Plug-In . SVG Version: 6.00 Build 43363)  -->
<!DOCTYPE svg PUBLIC "-//W3C//DTD SVG 1.1//EN" "http://www.w3.org/Graphics/SVG/1.1/DTD/svg11.dtd">
<svg version="1.1" id="Layer_1" xmlns="http://www.w3.org/2000/svg" xmlns:xlink="http://www.w3.org/1999/xlink" x="0px" y="0px"
	 width="600px" height="600px" viewBox="0 0 600 600" enable-background="new 0 0 600 600" xml:space="preserve">
<g>
	<path fill-rule="evenodd" clip-rule="evenodd" fill="#4B4B4B" d="M282,0c11.667,0,23.333,0,35,0c82.083,7.56,143.941,37.941,191,85
		c45.45,45.45,81.864,104.619,90,185c9.005,88.967-22.37,162.062-61,212c-40.855,52.815-94.11,90.059-167,108
		c-5.215-32.741,4.567-83.279-3-116c-2.207-9.543-10.124-19.19-8-28c2.578-10.691,17.397-12.361,30-15
		c33.625-7.04,65.412-27.722,80-52c16.586-27.604,25.816-92.478,11-130c-2.25-5.697-5.219-12.054-9-18
		c-3.609-5.676-8.818-10.69-10-17c-3.443-18.386,9.981-64.914-10-73c-14.257-5.77-30.752,4.443-38,8
		c-13.135,6.446-24.144,14.644-38,16c-18.739,1.833-36.515-6.213-57-8c-10.217-0.891-21.71-0.856-33,0
		c-23.63,1.793-40.877,10.367-60,8c-11.777-1.458-22.35-10.143-34-16c-8.958-4.503-24.506-13.245-39-8
		c-21.902,7.925-6.521,49.382-11,73c-1.373,7.24-7.412,13.171-11,19c-9.815,15.946-15.284,36.843-15,64
		c0.638,60.976,19.92,99.583,60,121c10.868,5.808,23.017,9.174,35,12c10.988,2.592,24.308,3.978,33,14
		c1.95,10.501-3.877,16.865-7,24c-3.465,7.916-4.644,14.682-11,20c-21.24,17.772-55.853,9.172-74-5
		c-19.111-14.925-24.003-41.715-48-43c-4.028,6.856,2.683,11.904,6,16c3.576,4.415,8.215,9.265,11,14c5.13,8.724,7.314,19.195,14,29
		c11.999,17.598,29.902,27.518,60,28c11.3,0.182,26.561-2.469,33,3c13.633,11.577,1.157,42.508,6,61
		c-67.841-14.992-120.591-50.194-159-95C35.413,450.986,5.74,393.56,0,317c0-11.667,0-23.333,0-35
		c3.213-38.503,13.552-79.994,29-112C74.821,75.064,159.44,12.942,282,0z"/>
</g>
</svg>
