<?xml version="1.0" encoding="utf-8"?>
<!-- Generator: Adobe Illustrator 14.0.0, SVG Export Plug-In . SVG Version: 6.00 Build 43363)  -->
<!DOCTYPE svg PUBLIC "-//W3C//DTD SVG 1.1//EN" "http://www.w3.org/Graphics/SVG/1.1/DTD/svg11.dtd">
<svg version="1.1" id="Layer_1" xmlns="http://www.w3.org/2000/svg" xmlns:xlink="http://www.w3.org/1999/xlink" x="0px" y="0px"
	 width="600px" height="600px" viewBox="0 0 600 600" enable-background="new 0 0 600 600" xml:space="preserve">
<g>
	<path fill-rule="evenodd" clip-rule="evenodd" fill="#4B4B4B" d="M282,0c12,0,24,0,36,0c83.905,7.847,149.034,41.041,195,88
		c45.808,46.798,80.106,110.498,87,195c0,11.333,0,22.667,0,34c-6.718,84.996-41.549,148.549-88,195
		c-46.45,46.45-110.029,81.25-195,88c-11.333,0-22.667,0-34,0c-84.985-6.762-148.54-41.54-195-88
		C41.548,465.549,6.718,401.996,0,317c0-11.333,0-22.667,0-34c2.413-40.359,14.146-79.544,30-113C75.113,74.803,159.649,13.11,282,0
		z M88,110c-1.321,2.623-4.328,10.567-5,19c-2.816,35.32,27.735,55.315,54,53c24.974-2.202,46.516-25.466,44-54
		c-2.438-27.65-27.28-47.192-56-43C106.819,87.654,93.678,98.723,88,110z M510,407c0-34.459,3.323-69.292,0-99
		c-2.612-23.354-17.787-47.961-33-62c-17.626-16.266-41.117-27.146-67-29c-44.753-3.206-70.504,18.726-91,38c0-9.333,0-18.667,0-28
		c-27.333,0-54.667,0-82,0c0,93.334,0,186.666,0,280c27.333,0,54.667,0,82,0c0-44.271,0-88.5,0-132c0-14.533-2.553-31.155,0-44
		c2.102-10.574,12.859-20.31,21-26c8.569-5.99,22.459-13.058,33-14c21.606-1.931,37.879,10.045,46,25c7.841,14.438,6,35.347,6,59
		c0,42.788,0,91.232,0,131c28.333,0,56.667,0,85,0C510,473.521,510,439.873,510,407z M92,229c0,92.335,0,184.666,0,277
		c27.667,0,55.333,0,83,0c0-93.334,0-186.666,0-280c-27.333,0-54.667,0-82,0C91.835,226.168,91.914,227.581,92,229z"/>
</g>
</svg>
